<svg width="147" height="94" viewBox="0 0 147 94" fill="none" xmlns="http://www.w3.org/2000/svg">
<rect width="147" height="94" fill="#E5E5E5"/>
<rect width="1440" height="1024" transform="translate(-226 -24)" fill="white"/>
<path d="M62.5 36L56.5 45.5L72 67L88 45.5L82 36H62.5Z" fill="#C4C4C4"/>
<path d="M6 71C7.5 54.5 26 18 57.5 12" stroke="#FF6D0E" stroke-width="3"/>
<path d="M140 71C138.485 54.5 119.806 18 88 12" stroke="#FF6D0E" stroke-width="3"/>
<path d="M69.04 17H66.5V7.20898L63.4678 8.14941V6.08398L68.7676 4.18555H69.04V17ZM81.9775 17H73.2061V15.2598L77.3457 10.8477C77.9141 10.2266 78.333 9.68457 78.6025 9.22168C78.8779 8.75879 79.0156 8.31934 79.0156 7.90332C79.0156 7.33496 78.8721 6.88965 78.585 6.56738C78.2979 6.23926 77.8877 6.0752 77.3545 6.0752C76.7803 6.0752 76.3262 6.27441 75.9922 6.67285C75.6641 7.06543 75.5 7.58398 75.5 8.22852H72.9512C72.9512 7.44922 73.1357 6.7373 73.5049 6.09277C73.8799 5.44824 74.4072 4.94434 75.0869 4.58105C75.7666 4.21191 76.5371 4.02734 77.3984 4.02734C78.7168 4.02734 79.7393 4.34375 80.4658 4.97656C81.1982 5.60938 81.5645 6.50293 81.5645 7.65723C81.5645 8.29004 81.4004 8.93457 81.0723 9.59082C80.7441 10.2471 80.1816 11.0117 79.3848 11.8848L76.4756 14.9521H81.9775V17Z" fill="#393635"/>
<path d="M6.81152 84.8848C6.14941 85.5352 5.37598 85.8604 4.49121 85.8604C3.36035 85.8604 2.45508 85.4736 1.77539 84.7002C1.0957 83.9209 0.755859 82.8721 0.755859 81.5537C0.755859 80.7158 0.9375 79.9482 1.30078 79.251C1.66992 78.5479 2.18262 78.0029 2.83887 77.6162C3.49512 77.2236 4.2334 77.0273 5.05371 77.0273C5.89746 77.0273 6.64746 77.2383 7.30371 77.6602C7.95996 78.082 8.46973 78.6885 8.83301 79.4795C9.19629 80.2705 9.38086 81.1758 9.38672 82.1953V83.1357C9.38672 85.2686 8.85645 86.9443 7.7959 88.1631C6.73535 89.3818 5.23242 90.0322 3.28711 90.1143L2.66309 90.123V88.0049L3.22559 87.9961C5.43457 87.8965 6.62988 86.8594 6.81152 84.8848ZM5.11523 83.918C5.52539 83.918 5.87695 83.8125 6.16992 83.6016C6.46875 83.3906 6.69434 83.1357 6.84668 82.8369V81.791C6.84668 80.9297 6.68262 80.2617 6.35449 79.7871C6.02637 79.3125 5.58691 79.0752 5.03613 79.0752C4.52637 79.0752 4.10742 79.3096 3.7793 79.7783C3.45117 80.2412 3.28711 80.8242 3.28711 81.5273C3.28711 82.2246 3.44531 82.7988 3.76172 83.25C4.08398 83.6953 4.53516 83.918 5.11523 83.918Z" fill="#393635"/>
<path d="M139.454 80.4766H140.808C141.452 80.4766 141.93 80.3154 142.24 79.9932C142.551 79.6709 142.706 79.2432 142.706 78.71C142.706 78.1943 142.551 77.793 142.24 77.5059C141.936 77.2188 141.514 77.0752 140.975 77.0752C140.488 77.0752 140.081 77.21 139.753 77.4795C139.425 77.7432 139.261 78.0889 139.261 78.5166H136.721C136.721 77.8486 136.899 77.251 137.257 76.7236C137.62 76.1904 138.124 75.7744 138.769 75.4756C139.419 75.1768 140.134 75.0273 140.913 75.0273C142.267 75.0273 143.327 75.3525 144.095 76.0029C144.862 76.6475 145.246 77.5381 145.246 78.6748C145.246 79.2607 145.067 79.7998 144.71 80.292C144.353 80.7842 143.884 81.1621 143.304 81.4258C144.024 81.6836 144.561 82.0703 144.912 82.5859C145.27 83.1016 145.448 83.7109 145.448 84.4141C145.448 85.5508 145.032 86.4619 144.2 87.1475C143.374 87.833 142.278 88.1758 140.913 88.1758C139.636 88.1758 138.59 87.8389 137.775 87.165C136.967 86.4912 136.562 85.6006 136.562 84.4932H139.103C139.103 84.9736 139.281 85.3662 139.639 85.6709C140.002 85.9756 140.447 86.1279 140.975 86.1279C141.578 86.1279 142.05 85.9697 142.39 85.6533C142.735 85.3311 142.908 84.9062 142.908 84.3789C142.908 83.1016 142.205 82.4629 140.799 82.4629H139.454V80.4766Z" fill="#393635"/>
<path d="M45.5 63.5L69 79L67 83.5L39.5 69.5L36.5 63.5H45.5Z" fill="#393635"/>
<path d="M78 83.5L76 79.5L118.5 50H126.5L123 56.5L78 83.5Z" fill="#393635"/>
<circle cx="72" cy="84" r="6" fill="#393635"/>
</svg>
