<svg width="100%" height="261" viewBox="0 0 777 261" fill="none" xmlns="http://www.w3.org/2000/svg">
<path d="M120.68 39.912C121.288 40.328 122.12 40.728 123.176 41.112C124.264 41.464 125.544 41.64 127.016 41.64C129.032 41.64 130.552 41.208 131.576 40.344C132.632 39.448 133.336 38.088 133.688 36.264C134.072 34.44 134.264 32.088 134.264 29.208V10.92H138.584V28.248C138.584 30.776 138.456 33.096 138.2 35.208C137.944 37.32 137.432 39.16 136.664 40.728C135.896 42.264 134.744 43.448 133.208 44.28C131.704 45.112 129.688 45.528 127.16 45.528C125.56 45.528 124.152 45.352 122.936 45C121.72 44.648 120.6 44.12 119.576 43.416L120.68 39.912ZM162.601 45.24C160.201 45.24 158.025 44.76 156.073 43.8C154.121 42.84 152.425 41.544 150.985 39.912C149.577 38.248 148.489 36.392 147.721 34.344C146.953 32.264 146.569 30.136 146.569 27.96C146.569 25.688 146.969 23.528 147.769 21.48C148.601 19.4 149.737 17.56 151.177 15.96C152.649 14.328 154.361 13.048 156.313 12.12C158.265 11.16 160.393 10.68 162.697 10.68C165.097 10.68 167.273 11.176 169.225 12.168C171.177 13.16 172.857 14.488 174.265 16.152C175.673 17.816 176.761 19.672 177.529 21.72C178.297 23.768 178.681 25.864 178.681 28.008C178.681 30.28 178.281 32.456 177.481 34.536C176.681 36.584 175.545 38.424 174.073 40.056C172.633 41.656 170.937 42.92 168.985 43.848C167.033 44.776 164.905 45.24 162.601 45.24ZM150.937 27.96C150.937 29.688 151.209 31.368 151.753 33C152.329 34.6 153.129 36.024 154.153 37.272C155.177 38.52 156.409 39.512 157.849 40.248C159.289 40.984 160.889 41.352 162.649 41.352C164.473 41.352 166.105 40.968 167.545 40.2C168.985 39.432 170.201 38.408 171.193 37.128C172.217 35.848 172.985 34.408 173.497 32.808C174.041 31.208 174.313 29.592 174.313 27.96C174.313 26.232 174.025 24.568 173.449 22.968C172.905 21.368 172.105 19.944 171.049 18.696C170.025 17.416 168.793 16.424 167.353 15.72C165.945 14.984 164.377 14.616 162.649 14.616C160.825 14.616 159.193 15 157.753 15.768C156.313 16.504 155.081 17.512 154.057 18.792C153.065 20.072 152.297 21.512 151.753 23.112C151.209 24.68 150.937 26.296 150.937 27.96ZM186.129 10.92L196.449 28.68L206.865 10.92H211.569L198.609 32.568V45H194.289V32.472L181.377 10.92H186.129ZM241.822 41.16V45H218.686V10.92H241.39V14.76H223.006V25.8H238.99V29.4H223.006V41.16H241.822ZM250.149 45V10.92H264.741C266.245 10.92 267.621 11.24 268.869 11.88C270.117 12.488 271.205 13.32 272.133 14.376C273.061 15.4 273.781 16.568 274.293 17.88C274.805 19.16 275.061 20.472 275.061 21.816C275.061 23.384 274.757 24.872 274.149 26.28C273.573 27.688 272.741 28.888 271.653 29.88C270.597 30.872 269.349 31.56 267.909 31.944L276.165 45H271.269L263.493 32.76H254.469V45H250.149ZM254.469 28.92H264.789C265.973 28.92 266.997 28.6 267.861 27.96C268.757 27.288 269.445 26.408 269.925 25.32C270.437 24.232 270.693 23.064 270.693 21.816C270.693 20.536 270.405 19.368 269.829 18.312C269.253 17.224 268.501 16.36 267.573 15.72C266.645 15.08 265.621 14.76 264.501 14.76H254.469V28.92ZM284.096 45V10.92H288.416V45H284.096ZM309.332 10.92H312.98L326.9 45H322.292L318.26 35.016H303.956L299.972 45H295.364L309.332 10.92ZM317.3 31.656L311.156 15.912L304.82 31.656H317.3ZM345.881 33.816V29.976H360.041V33.816H345.881ZM384.127 45V10.92H398.719C400.223 10.92 401.599 11.24 402.847 11.88C404.095 12.488 405.183 13.32 406.111 14.376C407.039 15.4 407.759 16.568 408.271 17.88C408.783 19.16 409.039 20.472 409.039 21.816C409.039 23.384 408.735 24.872 408.127 26.28C407.551 27.688 406.719 28.888 405.631 29.88C404.575 30.872 403.327 31.56 401.887 31.944L410.143 45H405.247L397.471 32.76H388.447V45H384.127ZM388.447 28.92H398.767C399.951 28.92 400.975 28.6 401.839 27.96C402.735 27.288 403.423 26.408 403.903 25.32C404.415 24.232 404.671 23.064 404.671 21.816C404.671 20.536 404.383 19.368 403.807 18.312C403.231 17.224 402.479 16.36 401.551 15.72C400.623 15.08 399.599 14.76 398.479 14.76H388.447V28.92ZM441.21 41.16V45H418.074V10.92H440.778V14.76H422.394V25.8H438.378V29.4H422.394V41.16H441.21ZM449.536 45V10.92H453.856V41.16H472.864V45H449.536ZM492.713 45.24C490.313 45.24 488.137 44.76 486.185 43.8C484.233 42.84 482.537 41.544 481.097 39.912C479.689 38.248 478.601 36.392 477.833 34.344C477.065 32.264 476.681 30.136 476.681 27.96C476.681 25.688 477.081 23.528 477.881 21.48C478.713 19.4 479.849 17.56 481.289 15.96C482.761 14.328 484.473 13.048 486.425 12.12C488.377 11.16 490.505 10.68 492.809 10.68C495.209 10.68 497.385 11.176 499.337 12.168C501.289 13.16 502.969 14.488 504.377 16.152C505.785 17.816 506.873 19.672 507.641 21.72C508.409 23.768 508.793 25.864 508.793 28.008C508.793 30.28 508.393 32.456 507.593 34.536C506.793 36.584 505.657 38.424 504.185 40.056C502.745 41.656 501.049 42.92 499.097 43.848C497.145 44.776 495.017 45.24 492.713 45.24ZM481.049 27.96C481.049 29.688 481.321 31.368 481.865 33C482.441 34.6 483.241 36.024 484.265 37.272C485.289 38.52 486.521 39.512 487.961 40.248C489.401 40.984 491.001 41.352 492.761 41.352C494.585 41.352 496.217 40.968 497.657 40.2C499.097 39.432 500.313 38.408 501.305 37.128C502.329 35.848 503.097 34.408 503.609 32.808C504.153 31.208 504.425 29.592 504.425 27.96C504.425 26.232 504.137 24.568 503.561 22.968C503.017 21.368 502.217 19.944 501.161 18.696C500.137 17.416 498.905 16.424 497.465 15.72C496.057 14.984 494.489 14.616 492.761 14.616C490.937 14.616 489.305 15 487.865 15.768C486.425 16.504 485.193 17.512 484.169 18.792C483.177 20.072 482.409 21.512 481.865 23.112C481.321 24.68 481.049 26.296 481.049 27.96ZM513.671 39.912C514.279 40.328 515.111 40.728 516.167 41.112C517.255 41.464 518.535 41.64 520.007 41.64C522.023 41.64 523.543 41.208 524.567 40.344C525.623 39.448 526.327 38.088 526.679 36.264C527.063 34.44 527.255 32.088 527.255 29.208V10.92H531.575V28.248C531.575 30.776 531.447 33.096 531.191 35.208C530.935 37.32 530.423 39.16 529.655 40.728C528.887 42.264 527.735 43.448 526.199 44.28C524.695 45.112 522.679 45.528 520.151 45.528C518.551 45.528 517.143 45.352 515.927 45C514.711 44.648 513.591 44.12 512.567 43.416L513.671 39.912ZM564.904 41.16V45H541.768V10.92H564.472V14.76H546.088V25.8H562.072V29.4H546.088V41.16H564.904ZM573.23 45V10.92H587.822C589.326 10.92 590.702 11.24 591.95 11.88C593.198 12.488 594.286 13.32 595.214 14.376C596.142 15.4 596.862 16.568 597.374 17.88C597.886 19.16 598.142 20.472 598.142 21.816C598.142 23.384 597.838 24.872 597.23 26.28C596.654 27.688 595.822 28.888 594.734 29.88C593.678 30.872 592.43 31.56 590.99 31.944L599.246 45H594.35L586.574 32.76H577.55V45H573.23ZM577.55 28.92H587.87C589.054 28.92 590.078 28.6 590.942 27.96C591.838 27.288 592.526 26.408 593.006 25.32C593.518 24.232 593.774 23.064 593.774 21.816C593.774 20.536 593.486 19.368 592.91 18.312C592.334 17.224 591.582 16.36 590.654 15.72C589.726 15.08 588.702 14.76 587.582 14.76H577.55V28.92ZM607.177 45V10.92H611.497V45H607.177ZM632.414 10.92H636.062L649.982 45H645.374L641.342 35.016H627.038L623.054 45H618.446L632.414 10.92ZM640.382 31.656L634.238 15.912L627.902 31.656H640.382Z" fill="white"/>
<path d="M25.2499 178C6.25001 178 6.25006 144 25.2499 144H124.25C139.75 144 139.75 178 124.25 178H76.7499V248C76.7499 261.668 41.7499 261.668 41.7499 248V178H25.2499Z" fill="black"/>
<path d="M15.2499 178C-3.74999 178 -3.74994 144 15.2499 144H114.25C129.75 144 129.75 178 114.25 178H66.7499V248C66.7499 261.668 31.7499 261.668 31.7499 248V178H15.2499Z" fill="#FF6D0E" stroke="black"/>
<path d="M544.25 178C525.25 178 525.25 144 544.25 144H643.25C658.75 144 658.75 178 643.25 178H595.75V248C595.75 261.668 560.75 261.668 560.75 248V178H544.25Z" fill="black"/>
<path d="M534.25 178C515.25 178 515.25 144 534.25 144H633.25C648.75 144 648.75 178 633.25 178H585.75V248C585.75 261.668 550.75 261.668 550.75 248V178H534.25Z" fill="#FF6D0E" stroke="black"/>
<path d="M147.5 187C147.5 173.722 113.5 173.722 113.5 187V250C113.5 263.278 147.5 263.278 147.5 250V187Z" fill="black" stroke="black"/>
<path d="M139 186.958C139 173.681 105 173.681 105 186.958V249.958C105 263.236 139 263.236 139 249.958V186.958Z" fill="#FF6D0E" stroke="black"/>
<path d="M220.5 149.5H157.5V259.5H220.5C237 259.5 236 224.5 220.5 224.5H189.5V181.5H220.5C232.5 181.5 236 149.5 220.5 149.5Z" fill="black" stroke="black"/>
<path d="M212 149H149V259H212C228.5 259 227.5 224 212 224H181V181H212C224 181 227.5 149 212 149Z" fill="#FF6D0E" stroke="black"/>
<path d="M754 147.5H691V257.5H754C770.5 257.5 769.5 222.5 754 222.5H723V179.5H754C766 179.5 769.5 147.5 754 147.5Z" fill="black" stroke="black"/>
<path d="M763.5 147H700.5V257H763.5C780 257 779 222 763.5 222H732.5V179H763.5C775.5 179 779 147 763.5 147Z" fill="#FF6D0E" stroke="black"/>
<path d="M680.5 181.5H607C604.791 181.5 603 183.289 603 185.498L603 251C603 260.5 635 258.5 635 251V217.989C635 215.78 636.791 214 639 214H649C651.209 214 653 215.779 653 217.988V251C653 260.5 684.5 259.5 684.5 251V185.497C684.5 183.288 682.709 181.5 680.5 181.5Z" fill="black" stroke="black"/>
<path d="M687 181H613.5C611.291 181 609.5 182.789 609.5 184.998L609.5 250.5C609.5 260 641.5 258 641.5 250.5V217.489C641.5 215.28 643.291 213.5 645.5 213.5H655.5C657.709 213.5 659.5 215.279 659.5 217.488V250.5C659.5 260 691 259 691 250.5V184.997C691 182.788 689.209 181 687 181Z" fill="#FF6D0E" stroke="black"/>
<path d="M368.796 141.973L357 160.65L387.473 202.918L418.929 160.65L407.133 141.973H368.796Z" fill="#C4C4C4"/>
<path d="M251.796 210.782C254.745 178.344 291.116 106.585 353.044 94.7891" stroke="#FF6D0E" stroke-width="7"/>
<path d="M520.238 210.782C517.26 178.344 480.537 106.585 418.007 94.7891" stroke="#FF6D0E" stroke-width="7"/>
<path d="M376.427 110.197H370.5V87.3516L363.425 89.5459V84.7266L375.791 80.2969H376.427V110.197ZM406.614 110.197H386.147V106.137L395.807 95.8418C397.133 94.3926 398.11 93.1279 398.739 92.0479C399.382 90.9678 399.703 89.9424 399.703 88.9717C399.703 87.6455 399.368 86.6064 398.698 85.8545C398.028 85.0889 397.071 84.7061 395.827 84.7061C394.487 84.7061 393.428 85.1709 392.648 86.1006C391.883 87.0166 391.5 88.2266 391.5 89.7305H385.553C385.553 87.9121 385.983 86.251 386.845 84.7471C387.72 83.2432 388.95 82.0674 390.536 81.2197C392.122 80.3584 393.92 79.9277 395.93 79.9277C399.006 79.9277 401.392 80.666 403.087 82.1426C404.796 83.6191 405.65 85.7041 405.65 88.3975C405.65 89.874 405.268 91.3779 404.502 92.9092C403.736 94.4404 402.424 96.2246 400.564 98.2617L393.776 105.419H406.614V110.197Z" fill="#CCCCCC"/>
<path d="M255.894 241.779C254.349 243.296 252.544 244.055 250.479 244.055C247.841 244.055 245.729 243.153 244.143 241.348C242.557 239.53 241.764 237.082 241.764 234.006C241.764 232.051 242.188 230.26 243.035 228.633C243.896 226.993 245.093 225.721 246.624 224.819C248.155 223.903 249.878 223.445 251.792 223.445C253.761 223.445 255.511 223.937 257.042 224.921C258.573 225.906 259.763 227.321 260.61 229.166C261.458 231.012 261.889 233.124 261.902 235.503V237.698C261.902 242.674 260.665 246.584 258.19 249.428C255.716 252.272 252.209 253.789 247.67 253.981L246.214 254.001V249.059L247.526 249.038C252.681 248.806 255.47 246.386 255.894 241.779ZM251.936 239.523C252.893 239.523 253.713 239.277 254.396 238.785C255.094 238.292 255.62 237.698 255.976 237V234.56C255.976 232.55 255.593 230.992 254.827 229.884C254.062 228.777 253.036 228.223 251.751 228.223C250.562 228.223 249.584 228.77 248.818 229.864C248.053 230.944 247.67 232.304 247.67 233.945C247.67 235.572 248.039 236.912 248.777 237.964C249.529 239.003 250.582 239.523 251.936 239.523Z" fill="#CCCCCC"/>
<path d="M517.434 232.228H520.592C522.096 232.228 523.21 231.852 523.935 231.1C524.659 230.348 525.022 229.35 525.022 228.106C525.022 226.902 524.659 225.966 523.935 225.296C523.224 224.626 522.239 224.291 520.982 224.291C519.847 224.291 518.897 224.606 518.131 225.234C517.365 225.85 516.983 226.656 516.983 227.654H511.056C511.056 226.096 511.473 224.701 512.307 223.471C513.154 222.227 514.33 221.256 515.834 220.559C517.352 219.861 519.02 219.513 520.838 219.513C523.996 219.513 526.471 220.272 528.262 221.789C530.053 223.293 530.948 225.371 530.948 228.024C530.948 229.391 530.531 230.649 529.697 231.797C528.863 232.945 527.77 233.827 526.416 234.442C528.098 235.044 529.349 235.946 530.169 237.149C531.003 238.353 531.42 239.774 531.42 241.415C531.42 244.067 530.449 246.193 528.508 247.793C526.58 249.393 524.024 250.192 520.838 250.192C517.858 250.192 515.417 249.406 513.517 247.834C511.63 246.262 510.687 244.184 510.687 241.6H516.613C516.613 242.721 517.03 243.637 517.864 244.348C518.712 245.059 519.751 245.414 520.982 245.414C522.39 245.414 523.49 245.045 524.283 244.307C525.09 243.555 525.493 242.564 525.493 241.333C525.493 238.353 523.853 236.862 520.571 236.862H517.434V232.228Z" fill="#CCCCCC"/>
<path d="M333.452 196.037L379.653 226.51L375.721 235.357L321.657 207.833L315.759 196.037H333.452Z" fill="#606060"/>
<path d="M393.347 235.357L389.415 227.493L472.969 169.497H488.697L481.816 182.275L393.347 235.357Z" fill="#606060"/>
<circle cx="387.796" cy="236.34" r="11.7959" fill="#606060"/>
</svg>
